<mxfile host="drawio-plugin" modified="2024-03-05T07:01:50.162Z" agent="5.0 (Windows NT 10.0; Win64; x64) AppleWebKit/537.36 (KHTML, like Gecko) Chrome/111.0.0.0 Safari/537.36" etag="ebTKiteuKs59g_v0VCww" version="20.5.3" type="embed" pages="2"><diagram id="T5lC3V_ZMaQrHtj8_HzM" name="第 1 页"><mxGraphModel dx="752" dy="537" grid="0" gridSize="10" guides="1" tooltips="1" connect="1" arrows="1" fold="1" page="1" pageScale="1" pageWidth="900" pageHeight="1600" math="0" shadow="0"><root><mxCell id="0"/><mxCell id="1" parent="0"/><mxCell id="n0r_kAefHaXU4tZYGgFK-6" style="edgeStyle=orthogonalEdgeStyle;rounded=0;orthogonalLoop=1;jettySize=auto;html=1;exitX=0.5;exitY=1;exitDx=0;exitDy=0;entryX=0.5;entryY=0;entryDx=0;entryDy=0;" parent="1" source="n0r_kAefHaXU4tZYGgFK-1" target="n0r_kAefHaXU4tZYGgFK-4" edge="1"><mxGeometry relative="1" as="geometry"/></mxCell><mxCell id="n0r_kAefHaXU4tZYGgFK-7" style="rounded=0;orthogonalLoop=1;jettySize=auto;html=1;exitX=0.5;exitY=1;exitDx=0;exitDy=0;entryX=0.5;entryY=0;entryDx=0;entryDy=0;" parent="1" source="n0r_kAefHaXU4tZYGgFK-1" target="n0r_kAefHaXU4tZYGgFK-5" edge="1"><mxGeometry relative="1" as="geometry"/></mxCell><mxCell id="n0r_kAefHaXU4tZYGgFK-1" value="ApiSecretKey" style="rounded=1;whiteSpace=wrap;html=1;fillColor=#ffff88;strokeColor=#36393d;" parent="1" vertex="1"><mxGeometry x="200" y="300" width="120" height="50" as="geometry"/></mxCell><mxCell id="n0r_kAefHaXU4tZYGgFK-3" value="" style="edgeStyle=orthogonalEdgeStyle;rounded=0;orthogonalLoop=1;jettySize=auto;html=1;" parent="1" source="n0r_kAefHaXU4tZYGgFK-2" target="n0r_kAefHaXU4tZYGgFK-1" edge="1"><mxGeometry relative="1" as="geometry"/></mxCell><mxCell id="n0r_kAefHaXU4tZYGgFK-2" value="Actor" style="shape=umlActor;verticalLabelPosition=bottom;verticalAlign=top;html=1;outlineConnect=0;" parent="1" vertex="1"><mxGeometry x="80" y="295" width="30" height="60" as="geometry"/></mxCell><mxCell id="n0r_kAefHaXU4tZYGgFK-4" value="ApiSecret" style="rounded=1;whiteSpace=wrap;html=1;fillColor=#dae8fc;strokeColor=#6c8ebf;" parent="1" vertex="1"><mxGeometry x="200" y="400" width="120" height="50" as="geometry"/></mxCell><mxCell id="n0r_kAefHaXU4tZYGgFK-5" value="ApiKey" style="rounded=1;whiteSpace=wrap;html=1;fillColor=#ffcccc;strokeColor=#36393d;" parent="1" vertex="1"><mxGeometry x="360" y="400" width="120" height="50" as="geometry"/></mxCell><mxCell id="n0r_kAefHaXU4tZYGgFK-8" value="&lt;div style=&quot;color: rgb(8, 8, 8); font-family: &amp;quot;JetBrains Mono&amp;quot;, monospace; font-size: 9.8pt;&quot;&gt;&lt;span style=&quot;color: rgb(6, 125, 23);&quot;&gt;4e087e4135306ef4a676f0cce3cee160.sgP2DUsWEVPPOLK&lt;/span&gt;&lt;/div&gt;" style="rounded=1;whiteSpace=wrap;html=1;fillColor=#ffff88;strokeColor=#36393d;" parent="1" vertex="1"><mxGeometry x="360" y="300" width="430" height="20" as="geometry"/></mxCell><mxCell id="n0r_kAefHaXU4tZYGgFK-9" value="&lt;div style=&quot;color: rgb(8, 8, 8); font-family: &amp;quot;JetBrains Mono&amp;quot;, monospace; font-size: 9.8pt;&quot;&gt;&lt;span style=&quot;color: rgb(6, 125, 23);&quot;&gt;4e087e4135306ef4a676f0cce3cee160&lt;/span&gt;&lt;/div&gt;" style="rounded=1;whiteSpace=wrap;html=1;fillColor=#dae8fc;strokeColor=#6c8ebf;" parent="1" vertex="1"><mxGeometry x="360" y="330" width="280" height="20" as="geometry"/></mxCell><mxCell id="n0r_kAefHaXU4tZYGgFK-10" value="&lt;div style=&quot;color: rgb(8, 8, 8); font-family: &amp;quot;JetBrains Mono&amp;quot;, monospace; font-size: 9.8pt;&quot;&gt;&lt;span style=&quot;color: rgb(6, 125, 23);&quot;&gt;sgP2DUsWEVPPOLK&lt;/span&gt;&lt;br&gt;&lt;/div&gt;" style="rounded=1;whiteSpace=wrap;html=1;fillColor=#ffcccc;strokeColor=#36393d;" parent="1" vertex="1"><mxGeometry x="650" y="330" width="140" height="20" as="geometry"/></mxCell><mxCell id="n0r_kAefHaXU4tZYGgFK-16" style="edgeStyle=none;rounded=0;orthogonalLoop=1;jettySize=auto;html=1;exitX=1;exitY=0.5;exitDx=0;exitDy=0;entryX=0;entryY=0.5;entryDx=0;entryDy=0;" parent="1" source="n0r_kAefHaXU4tZYGgFK-12" target="n0r_kAefHaXU4tZYGgFK-15" edge="1"><mxGeometry relative="1" as="geometry"/></mxCell><mxCell id="n0r_kAefHaXU4tZYGgFK-12" value="Authorization Bearer JWT Token" style="rounded=1;whiteSpace=wrap;html=1;fillColor=#d80073;strokeColor=#A50040;fontColor=#ffffff;" parent="1" vertex="1"><mxGeometry x="200" y="510" width="280" height="50" as="geometry"/></mxCell><mxCell id="n0r_kAefHaXU4tZYGgFK-14" style="edgeStyle=none;rounded=0;orthogonalLoop=1;jettySize=auto;html=1;exitX=1;exitY=0.5;exitDx=0;exitDy=0;" parent="1" source="n0r_kAefHaXU4tZYGgFK-13" target="n0r_kAefHaXU4tZYGgFK-12" edge="1"><mxGeometry relative="1" as="geometry"/></mxCell><mxCell id="n0r_kAefHaXU4tZYGgFK-13" value="HTTP" style="rounded=1;whiteSpace=wrap;html=1;fillColor=#dae8fc;strokeColor=#6c8ebf;" parent="1" vertex="1"><mxGeometry x="80" y="510" width="80" height="50" as="geometry"/></mxCell><mxCell id="n0r_kAefHaXU4tZYGgFK-15" value="智谱Ai" style="rounded=1;whiteSpace=wrap;html=1;fillColor=#1ba1e2;strokeColor=#006EAF;fontColor=#ffffff;" parent="1" vertex="1"><mxGeometry x="520" y="510" width="80" height="50" as="geometry"/></mxCell><mxCell id="n0r_kAefHaXU4tZYGgFK-17" value="" style="html=1;shadow=0;dashed=0;align=center;verticalAlign=middle;shape=mxgraph.arrows2.arrow;dy=1;dx=17;direction=south;notch=0;labelBackgroundColor=none;" parent="1" vertex="1"><mxGeometry x="315" y="460" width="50" height="50" as="geometry"/></mxCell><mxCell id="n0r_kAefHaXU4tZYGgFK-19" value="HS256" style="text;html=1;align=center;verticalAlign=middle;resizable=0;points=[];autosize=1;strokeColor=none;fillColor=none;" parent="1" vertex="1"><mxGeometry x="340" y="460" width="60" height="30" as="geometry"/></mxCell></root></mxGraphModel></diagram><diagram id="5ZydTJUIEHrtRD0YGt-A" name="第 2 页"><mxGraphModel dx="752" dy="537" grid="0" gridSize="10" guides="1" tooltips="1" connect="1" arrows="1" fold="1" page="1" pageScale="1" pageWidth="900" pageHeight="1600" math="0" shadow="0"><root><mxCell id="0"/><mxCell id="1" parent="0"/><mxCell id="bUe6fS2eLB9y7Jn7jJjl-30" style="edgeStyle=orthogonalEdgeStyle;rounded=0;orthogonalLoop=1;jettySize=auto;html=1;exitX=0.75;exitY=1;exitDx=0;exitDy=0;entryX=0.75;entryY=0;entryDx=0;entryDy=0;fontSize=14;" parent="1" source="bUe6fS2eLB9y7Jn7jJjl-3" target="bUe6fS2eLB9y7Jn7jJjl-6" edge="1"><mxGeometry relative="1" as="geometry"/></mxCell><mxCell id="bUe6fS2eLB9y7Jn7jJjl-3" value="&lt;font style=&quot;font-size: 14px;&quot;&gt;工厂配置🏭&lt;/font&gt;" style="rounded=1;whiteSpace=wrap;html=1;labelBackgroundColor=none;fillColor=#fff2cc;strokeColor=#d6b656;gradientColor=#ffd966;" parent="1" vertex="1"><mxGeometry x="175" y="224" width="120" height="60" as="geometry"/></mxCell><mxCell id="bUe6fS2eLB9y7Jn7jJjl-5" value="" style="edgeStyle=none;rounded=0;orthogonalLoop=1;jettySize=auto;html=1;" parent="1" source="bUe6fS2eLB9y7Jn7jJjl-4" target="bUe6fS2eLB9y7Jn7jJjl-3" edge="1"><mxGeometry relative="1" as="geometry"/></mxCell><mxCell id="bUe6fS2eLB9y7Jn7jJjl-27" style="edgeStyle=orthogonalEdgeStyle;rounded=0;orthogonalLoop=1;jettySize=auto;html=1;exitX=0.5;exitY=0.5;exitDx=0;exitDy=0;exitPerimeter=0;entryX=0;entryY=0.5;entryDx=0;entryDy=0;fontSize=14;" parent="1" source="bUe6fS2eLB9y7Jn7jJjl-4" target="bUe6fS2eLB9y7Jn7jJjl-6" edge="1"><mxGeometry relative="1" as="geometry"><Array as="points"><mxPoint x="84" y="354"/></Array></mxGeometry></mxCell><mxCell id="bUe6fS2eLB9y7Jn7jJjl-28" value="请求接口" style="edgeLabel;html=1;align=center;verticalAlign=middle;resizable=0;points=[];fontSize=14;" parent="bUe6fS2eLB9y7Jn7jJjl-27" vertex="1" connectable="0"><mxGeometry x="0.4031" y="5" relative="1" as="geometry"><mxPoint x="6" y="5" as="offset"/></mxGeometry></mxCell><mxCell id="bUe6fS2eLB9y7Jn7jJjl-4" value="Actor" style="shape=umlActor;verticalLabelPosition=bottom;verticalAlign=top;html=1;outlineConnect=0;labelBackgroundColor=none;" parent="1" vertex="1"><mxGeometry x="69" y="224" width="30" height="60" as="geometry"/></mxCell><mxCell id="bUe6fS2eLB9y7Jn7jJjl-14" style="edgeStyle=none;rounded=0;orthogonalLoop=1;jettySize=auto;html=1;exitX=1;exitY=0.5;exitDx=0;exitDy=0;fontSize=14;" parent="1" source="bUe6fS2eLB9y7Jn7jJjl-6" target="bUe6fS2eLB9y7Jn7jJjl-8" edge="1"><mxGeometry relative="1" as="geometry"/></mxCell><mxCell id="bUe6fS2eLB9y7Jn7jJjl-31" style="edgeStyle=orthogonalEdgeStyle;rounded=0;orthogonalLoop=1;jettySize=auto;html=1;exitX=0.25;exitY=0;exitDx=0;exitDy=0;entryX=0.25;entryY=1;entryDx=0;entryDy=0;fontSize=14;" parent="1" source="bUe6fS2eLB9y7Jn7jJjl-6" target="bUe6fS2eLB9y7Jn7jJjl-3" edge="1"><mxGeometry relative="1" as="geometry"/></mxCell><mxCell id="bUe6fS2eLB9y7Jn7jJjl-6" value="&lt;font style=&quot;font-size: 14px;&quot;&gt;获取会话&lt;/font&gt;" style="rounded=1;whiteSpace=wrap;html=1;labelBackgroundColor=none;fillColor=#d5e8d4;strokeColor=#82b366;gradientColor=#97d077;" parent="1" vertex="1"><mxGeometry x="175" y="324" width="120" height="60" as="geometry"/></mxCell><mxCell id="bUe6fS2eLB9y7Jn7jJjl-22" style="edgeStyle=none;rounded=0;orthogonalLoop=1;jettySize=auto;html=1;exitX=0.5;exitY=1;exitDx=0;exitDy=0;entryX=0.5;entryY=0;entryDx=0;entryDy=0;fontSize=14;" parent="1" source="bUe6fS2eLB9y7Jn7jJjl-8" target="bUe6fS2eLB9y7Jn7jJjl-15" edge="1"><mxGeometry relative="1" as="geometry"/></mxCell><mxCell id="bUe6fS2eLB9y7Jn7jJjl-8" value="&lt;span style=&quot;font-size: 14px;&quot;&gt;服务请求&lt;/span&gt;" style="rounded=1;whiteSpace=wrap;html=1;labelBackgroundColor=none;fillColor=#dae8fc;strokeColor=#6c8ebf;gradientColor=#7ea6e0;" parent="1" vertex="1"><mxGeometry x="357" y="324" width="220" height="60" as="geometry"/></mxCell><mxCell id="bUe6fS2eLB9y7Jn7jJjl-10" value="模型" style="rounded=1;whiteSpace=wrap;html=1;labelBackgroundColor=none;fontSize=14;fillColor=#ffff88;strokeColor=#36393d;" parent="1" vertex="1"><mxGeometry x="367" y="372" width="46" height="23" as="geometry"/></mxCell><mxCell id="bUe6fS2eLB9y7Jn7jJjl-11" value="提问" style="rounded=1;whiteSpace=wrap;html=1;labelBackgroundColor=none;fontSize=14;fillColor=#cce5ff;strokeColor=#36393d;" parent="1" vertex="1"><mxGeometry x="419" y="372" width="46" height="23" as="geometry"/></mxCell><mxCell id="bUe6fS2eLB9y7Jn7jJjl-12" value="随机性" style="rounded=1;whiteSpace=wrap;html=1;labelBackgroundColor=none;fontSize=14;fillColor=#cdeb8b;strokeColor=#36393d;" parent="1" vertex="1"><mxGeometry x="471" y="372" width="46" height="23" as="geometry"/></mxCell><mxCell id="bUe6fS2eLB9y7Jn7jJjl-13" value="多样性" style="rounded=1;whiteSpace=wrap;html=1;labelBackgroundColor=none;fontSize=14;fillColor=#ffcccc;strokeColor=#36393d;" parent="1" vertex="1"><mxGeometry x="523" y="372" width="46" height="23" as="geometry"/></mxCell><mxCell id="bUe6fS2eLB9y7Jn7jJjl-23" style="edgeStyle=orthogonalEdgeStyle;rounded=0;orthogonalLoop=1;jettySize=auto;html=1;exitX=0;exitY=0.5;exitDx=0;exitDy=0;entryX=0.5;entryY=0.5;entryDx=0;entryDy=0;entryPerimeter=0;fontSize=14;" parent="1" source="bUe6fS2eLB9y7Jn7jJjl-15" target="bUe6fS2eLB9y7Jn7jJjl-4" edge="1"><mxGeometry relative="1" as="geometry"/></mxCell><mxCell id="bUe6fS2eLB9y7Jn7jJjl-24" value="返回结果" style="edgeLabel;html=1;align=center;verticalAlign=middle;resizable=0;points=[];fontSize=14;" parent="bUe6fS2eLB9y7Jn7jJjl-23" vertex="1" connectable="0"><mxGeometry x="-0.4269" y="-1" relative="1" as="geometry"><mxPoint as="offset"/></mxGeometry></mxCell><mxCell id="bUe6fS2eLB9y7Jn7jJjl-15" value="" style="rounded=1;whiteSpace=wrap;html=1;labelBackgroundColor=none;fillColor=#e6d0de;gradientColor=#d5739d;strokeColor=#996185;" parent="1" vertex="1"><mxGeometry x="357" y="450" width="220" height="60" as="geometry"/></mxCell><mxCell id="bUe6fS2eLB9y7Jn7jJjl-17" value="模型&lt;br&gt;填充" style="rounded=1;whiteSpace=wrap;html=1;labelBackgroundColor=none;fontSize=14;" parent="1" vertex="1"><mxGeometry x="369" y="461.5" width="51" height="37" as="geometry"/></mxCell><mxCell id="bUe6fS2eLB9y7Jn7jJjl-19" value="Token" style="rounded=1;whiteSpace=wrap;html=1;labelBackgroundColor=none;fontSize=14;" parent="1" vertex="1"><mxGeometry x="441.5" y="461.5" width="51" height="37" as="geometry"/></mxCell><mxCell id="bUe6fS2eLB9y7Jn7jJjl-20" value="监听" style="rounded=1;whiteSpace=wrap;html=1;labelBackgroundColor=none;fontSize=14;" parent="1" vertex="1"><mxGeometry x="512" y="461.5" width="51" height="37" as="geometry"/></mxCell><mxCell id="bUe6fS2eLB9y7Jn7jJjl-32" value="ChatGLM SDK By xiaofuge" style="text;html=1;align=center;verticalAlign=middle;resizable=0;points=[];autosize=1;strokeColor=none;fillColor=none;fontSize=14;" parent="1" vertex="1"><mxGeometry x="389" y="224" width="188" height="29" as="geometry"/></mxCell></root></mxGraphModel></diagram></mxfile>